PathFileType	4	(X/Y/Z)	66_2_39_p0_0-244.trc
DataRate	CameraRate	NumFrames	NumMarkers	Units	OrigDataRate	OrigDataStartFrame	OrigNumFrames
59.0	59.0	7	27	m	59.0	183	245
Frame#	Time	RHip			RKnee			RAnkle			RBigToe			RSmallToe			RHeel			LHip			LKnee			LAnkle			LBigToe			LSmallToe			LHeel			Neck			Head			Nose			RShoulder			RElbow			RWrist			RThumb			RIndex			RPinky			LShoulder			LElbow			LWrist			LThumb			LIndex			LPinky			
		X1	Y1	Z1	X2	Y2	Z2	X3	Y3	Z3	X4	Y4	Z4	X5	Y5	Z5	X6	Y6	Z6	X7	Y7	Z7	X8	Y8	Z8	X9	Y9	Z9	X10	Y10	Z10	X11	Y11	Z11	X12	Y12	Z12	X13	Y13	Z13	X14	Y14	Z14	X15	Y15	Z15	X16	Y16	Z16	X17	Y17	Z17	X18	Y18	Z18	X19	Y19	Z19	X20	Y20	Z20	X21	Y21	Z21	X22	Y22	Z22	X23	Y23	Z23	X24	Y24	Z24	X25	Y25	Z25	X26	Y26	Z26	X27	Y27	Z27	
183	3.1016949152542375	0.5558857667451371	0.9484482482892388	0.8058241412817146	0.5643618209637791	1.0582539590791316	1.2187491848022907	0.5369705305127744	1.1672674453654344	1.6175100471989088	0.495178946606457	0.927183642748692	1.662077587765234	0.5636822671073776	0.9407680986658041	1.6532397611620353	0.5049544529753305	1.245674220610475	1.6715247642593556	0.3347078790352342	0.95816344144684	0.8044631469328211	0.32596474828991656	1.0468732963041318	1.2121376325178788	0.32077037532090713	1.1500894127875374	1.58293186219545	0.32986203344401854	0.9302474903959266	1.6361465694288448	0.27186696366377433	1.006067182203389	1.6407847507294313	0.3444052857637426	1.2283682430081464	1.6354133982998391	0.4588560387227629	0.8157540507419949	0.2466742749855738	0.4630438325317265	0.7051526101266301	0.019243472975520426	0.4544322085450862	0.6671941108887691	0.14526378598740727	0.6092335908656014	0.7895714573366198	0.3470475890802451	0.662576687597234	0.8944328494852769	0.6041714092697404	0.6453440328554632	0.8863403878007208	0.8604799600965113	0.594593165948739	0.8856304002181532	0.9711494602491051	0.5972124746984244	0.8732041541048441	0.984731111840329	0.6622748141453152	0.9397065847628009	0.9879896548144154	0.31165018822604673	0.8481094002234995	0.321340030490263	0.2386768221293971	0.9242967860671236	0.5798407281163783	0.2375482562377525	0.8576863077651398	0.8100843795498973	0.28459138224676406	0.8397666419396824	0.9096935500903027	0.2539071717734057	0.8398570187804228	0.9507856684379222	0.22886022619261856	0.8504044656355777	0.9512845308083963
184	3.1186440677966103	0.5609536698557195	0.9496048090035201	0.8059155805511471	0.5633240224933171	1.05588248536131	1.2140224521027934	0.5309608249766606	1.1536757579235157	1.6125885910538824	0.503695065869112	0.9430456898358102	1.6682586048089845	0.5682486021510403	0.9547170448388739	1.6585402951964938	0.49922498075058913	1.23009268812469	1.6620909881465316	0.33899544941225435	0.9566410288530989	0.7998106348234038	0.32676226153428795	1.044972057428611	1.2073964081602164	0.3208124225886678	1.1493369693282531	1.5824529060598995	0.32977229773668676	0.9294215401311466	1.6355147868272872	0.2721131397075339	1.0050275288457506	1.640115669363367	0.34396949813031596	1.2258474423610157	1.6341045535912204	0.4588045336801798	0.8155346014624225	0.24668531871625426	0.46302733759019515	0.7048676994714808	0.019249129920117382	0.4586755349855563	0.6707621357467602	0.1479820627342348	0.60915964459467	0.7893754712535768	0.3471766868350527	0.6618009107885281	0.8950665330792852	0.6121605878755255	0.639807436280616	0.8706079991152779	0.8587039786535886	0.5830828928668763	0.8875030588791126	0.9718662712746713	0.5965749912857653	0.8726902593279438	0.9848556442843767	0.6464225982916614	0.8928974377963023	0.979731027171525	0.311754846750072	0.8482569080351302	0.3216079994366347	0.23872602548436453	0.9233739734652494	0.5840628669225008	0.24230097897277222	0.8434490505979371	0.8083013564365196	0.3059435858234805	0.7973249503845311	0.8955950036517502	0.269736111842823	0.8255186360905999	0.9405870194725181	0.23740719206077784	0.8241670193313638	0.946633967322277
185	3.135593220338983	0.5604198428583319	0.946332964264191	0.8014029671265972	0.5582838229750979	1.054307082259351	1.2134805120593297	0.5309179229967621	1.1532534259139426	1.6124809571037535	0.5033791101672802	0.9413560929444407	1.6672940742239097	0.5680342889126001	0.9527507973198215	1.6579014300143649	0.49877198911131754	1.2286474288672153	1.6613842083725772	0.34393022365108	0.9409440379637776	0.7980261619386316	0.3266489226217217	1.0447638648725206	1.207202482604437	0.320734114720963	1.1495149179230262	1.5825878605172883	0.32992339078163996	0.9289488058096036	1.6353803145880295	0.2771820105438898	0.9878217508564823	1.6333203597800974	0.33758003976263173	1.226281666999925	1.6396900735056263	0.4587650330454839	0.8156283551365764	0.24666293216156443	0.4630989000452558	0.705022330412509	0.0192359561937652	0.4543893899436272	0.6671637472509124	0.1452243419187237	0.6091743003062436	0.7893910781325393	0.34717759665572606	0.6620490229213798	0.8960684631249249	0.6130245464134818	0.6294317150424852	0.8537463415344777	0.8603702995718417	0.5733824992727973	0.8621462466023155	0.9701822599583473	0.5869348908540893	0.8603938958465241	0.9860422522620589	0.6322490251320172	0.8722326112868406	0.9793639238939313	0.31179203739641226	0.8482615153745032	0.3217076033494817	0.23862212794770848	0.9271603328190767	0.5921133731806296	0.2513580712290505	0.8301061303322788	0.8061549865376283	0.32224521793440647	0.7697939648279968	0.8945734229635391	0.3026854187077026	0.7669921685983735	0.927319835515512	0.23664580340981964	0.8245961208700939	0.934533436592452
186	3.152542372881356	0.5608945214786376	0.9454702021798109	0.8056937556606234	0.5580240618780771	1.054045544508576	1.2134699765561259	0.5316551906114709	1.155998178070667	1.6176983193497454	0.5023583982390029	0.9393496896836551	1.6660151832321564	0.566871542922797	0.9513256934885542	1.653336920036891	0.5004245322320765	1.2438698628479141	1.6708145197276858	0.34878194086219866	0.9422178519577554	0.7982980225264259	0.3298687376530739	1.048432554319454	1.2121319871465568	0.32071551735555476	1.14961589870874	1.5828618743430312	0.33026941687571065	0.9270412127196188	1.638987597755595	0.27721090060821857	0.9878881898360924	1.6334291170476727	0.3372848419627242	1.227031375659063	1.6407637165363465	0.45881686299153956	0.8156748775707814	0.24671924508995813	0.4661403618524988	0.7170379840072688	0.017495293654703026	0.4581082849324759	0.6782257341690118	0.14406851928268696	0.6089833572485684	0.7891766422077279	0.3472595095984344	0.6578417248802302	0.8950470310322809	0.6129284180424798	0.6174383185858909	0.8503296425963731	0.8630236197845254	0.5555505338757738	0.8152064156086198	0.9581121537371498	0.5810082849428263	0.8607658087525047	0.9899739270293332	0.6203309094437505	0.8723822672965125	0.9869046436278724	0.31174290344705036	0.8478628476352542	0.3215739512364874	0.2386275662591891	0.9267544996749797	0.5921725334349226	0.2644294569817758	0.8182224135114943	0.8045688153102729	0.3270391507997687	0.7713723939819944	0.894225754462099	0.31361014124350656	0.7406618438123047	0.9240515998842878	0.24907325926106297	0.8238572877147443	0.9409562606952689
187	3.169491525423729	0.5607992973694559	0.9478448627871229	0.8056504778777068	0.5588116388160292	1.052266251977533	1.2089942570739205	0.531919726015365	1.1522326543387327	1.6075441429080608	0.49911232716901105	0.9388792404625335	1.6660061344498371	0.5679485475306045	0.9504455163930087	1.6572198119786223	0.5052797269715927	1.2417409906250754	1.660439770305147	0.3528443880829606	0.9465158498647943	0.8068688965663494	0.3298738636595964	1.0484323097581019	1.2122680168155686	0.3205907257236227	1.1490790452091335	1.5823525063714279	0.33011868924542925	0.9272043976097247	1.6390870928714332	0.2771905190399877	0.9877140715018446	1.6333614690485585	0.3373400550206864	1.2263669467198663	1.6399260298329486	0.45888501876226234	0.8149868848154515	0.24682643506722285	0.46611944178904985	0.7167296143021887	0.01750308784987815	0.4580713227082995	0.6781093708829714	0.144015890674651	0.6088950125383679	0.7888161040336714	0.34741079276106746	0.6588059133222133	0.8979983887035841	0.6175428888099634	0.5998015341773081	0.8321476356085536	0.8563657577024095	0.53319610010166	0.8117813078452807	0.9578111971576558	0.5610317908777244	0.8175493479333372	0.9824666721780798	0.606864071405945	0.871488226087868	0.9868976366140334	0.3117828950060862	0.8480498763210539	0.32160523434477023	0.24350419002958865	0.9111614632179598	0.5914719209423186	0.2739007913131587	0.8197184363489779	0.8048144097788934	0.33887092174683353	0.7727291830460318	0.8908490114538093	0.3254991081256263	0.7414005636299177	0.924341609966943	0.26750190958527165	0.808341559229568	0.9453987444211862
188	3.1864406779661016	0.5595901783847553	0.9463253903759915	0.8052449325781228	0.5595918536267571	1.0534514768578234	1.2177246880626027	0.5366263583889752	1.1681726109463628	1.6131022133007642	0.5020030107764689	0.9416422488535019	1.671549114006605	0.5669500245153023	0.9519903117910428	1.662057534401086	0.5052261188522505	1.240097661661168	1.6634941892860358	0.3532573880605446	0.9450523656969	0.80344208390719	0.3348715143574183	1.0485425116953135	1.2163838919963488	0.31638278482971416	1.1462905936463812	1.5854091518730182	0.3302205326872115	0.9269816692082635	1.6390640889223127	0.2771243210991575	0.987617040658296	1.6332580518494366	0.33389269097759955	1.2424742556570247	1.644684380464015	0.4587630480367117	0.8154927706093308	0.2467508736696591	0.46593526637563326	0.7169540523452475	0.017430929210005636	0.4581415968079716	0.678324510239022	0.14415912737516562	0.6088091514632578	0.7889389086614539	0.3473891642233698	0.654482366866006	0.8846578316715783	0.6162874525545418	0.5947614133594533	0.829063788679146	0.8488111628074891	0.5207978639344034	0.8125033668677144	0.9584579598781279	0.5425336301994964	0.7889277655172503	0.977306390586805	0.5974416439713395	0.8592147308200744	0.9885174638346879	0.3117904102628288	0.8479588092670599	0.32163410337086834	0.24745797623237298	0.9142933693551875	0.5916284333590219	0.2786408786892487	0.8047062555872467	0.8030522637031469	0.3476962583899777	0.7590355729452679	0.8883593889180286	0.32723282140780113	0.7376984102511167	0.916844592901563	0.3007017886595082	0.7602483897788254	0.933816319211691
189	3.2033898305084745	0.5547542976811135	0.9460120132317427	0.8054106047136665	0.5587094482932184	1.050401218784533	1.2085217529692949	0.5318019823996684	1.1541616769019727	1.621742397766011	0.49624730613943213	0.9267796614647731	1.665775111131158	0.5656956624593488	0.9517943161001239	1.6616512851230836	0.4992582984749717	1.2271760122831645	1.6688377004012442	0.34802160293167045	0.9610774852478946	0.8089422422301532	0.33443444198038574	1.047049628347398	1.2156013919654527	0.31610228223296954	1.1465009303875464	1.5855319459503332	0.32998387646778066	0.9272068686054677	1.6391220086727727	0.2767183438224376	0.9880199141854498	1.6335727102556723	0.332749861995688	1.2429780761735298	1.6452136094732066	0.4587868836680804	0.815651563341524	0.24677891555387238	0.4659096569459815	0.7170714445602987	0.01739647335424892	0.45811324923996805	0.6782230879116374	0.14415095739585174	0.6088202272955492	0.7890560325982688	0.34745635056812263	0.6541036342716996	0.8811787546127923	0.6086735528091066	0.5904019737876314	0.8173417915967921	0.8471711730682616	0.5169218126557126	0.7926274097467222	0.9504066843962846	0.5290789399281628	0.7742610525870133	0.9741041101654739	0.5855184450258297	0.8305969286737552	0.976322516946794	0.31176254739942855	0.8478706951059696	0.32160003795936654	0.2471495151582212	0.911573404292096	0.5914835415320322	0.30014930936860745	0.7752852754891417	0.7991536356247773	0.37351498969555785	0.7472226438202638	0.8860360441280192	0.3393006106183959	0.7084688393386733	0.9000518070543961	0.31089410593761846	0.7388167601478439	0.9291764283587086
